<svg width="32" height="33" viewBox="0 0 32 33" fill="none" xmlns="http://www.w3.org/2000/svg">
<path d="M26 29.04H25.83C6.18 27.91 3.39 11.33 3 6.27004C2.96858 5.87662 3.01509 5.48086 3.13688 5.10545C3.25866 4.73004 3.45333 4.38234 3.70972 4.08229C3.96611 3.78224 4.27919 3.53573 4.63101 3.35688C4.98284 3.17803 5.3665 3.07036 5.76 3.04004H11.27C11.6706 3.03965 12.062 3.15955 12.3936 3.3842C12.7253 3.60885 12.9818 3.92791 13.13 4.30004L14.65 8.04004C14.7964 8.40359 14.8327 8.80212 14.7544 9.18613C14.6762 9.57014 14.4869 9.92271 14.21 10.2L12.08 12.35C12.4127 14.2408 13.3182 15.9837 14.6739 17.343C16.0296 18.7023 17.7701 19.6123 19.66 19.95L21.83 17.8C22.1115 17.5262 22.4674 17.3413 22.8533 17.2684C23.2392 17.1955 23.638 17.2378 24 17.39L27.77 18.9C28.1365 19.0529 28.4492 19.3115 28.6683 19.6427C28.8873 19.974 29.0028 20.3629 29 20.76V26.04C29 26.8357 28.6839 27.5988 28.1213 28.1614C27.5587 28.724 26.7957 29.04 26 29.04ZM6 5.04004C5.73479 5.04004 5.48043 5.1454 5.2929 5.33293C5.10536 5.52047 5 5.77482 5 6.04004V6.12004C5.46 12.04 8.41 26.04 25.94 27.04C26.0714 27.0482 26.2031 27.0303 26.3275 26.9874C26.4519 26.9445 26.5667 26.8775 26.6652 26.7901C26.7637 26.7028 26.8439 26.5969 26.9014 26.4785C26.9588 26.36 26.9924 26.2314 27 26.1V20.76L23.23 19.25L20.36 22.1L19.88 22.04C11.18 20.95 10 12.25 10 12.16L9.94 11.68L12.78 8.81004L11.28 5.04004H6Z" fill="white"/>
</svg>
