<svg width="29" height="29" viewBox="0 0 29 29" fill="none" xmlns="http://www.w3.org/2000/svg">
<path d="M14.4 0.0400391C10.5809 0.0400391 6.91819 1.55718 4.21766 4.2577C1.51714 6.95822 0 10.6209 0 14.44C0 18.2592 1.51714 21.9219 4.21766 24.6224C6.91819 27.3229 10.5809 28.84 14.4 28.84C18.2191 28.84 21.8818 27.3229 24.5823 24.6224C27.2829 21.9219 28.8 18.2592 28.8 14.44C28.8 10.6209 27.2829 6.95822 24.5823 4.2577C21.8818 1.55718 18.2191 0.0400391 14.4 0.0400391V0.0400391ZM1.776 15.528H5.792C5.856 16.984 6.0592 18.4304 6.4 19.848H2.944C2.29953 18.4894 1.90393 17.0263 1.776 15.528ZM15.488 6.88804V1.94404C17.0299 2.53 18.2969 3.67144 19.04 5.14404C19.368 5.69924 19.6576 6.27684 19.904 6.87204L15.488 6.88804ZM20.64 9.04804C21.0112 10.4608 21.232 11.9088 21.296 13.368H15.488V9.04804H20.64ZM13.312 1.94404V6.88804H8.896C9.14282 6.29235 9.43154 5.71491 9.76 5.16004C10.4999 3.6814 11.7673 2.5339 13.312 1.94404ZM13.312 9.04804V13.368H7.52C7.584 11.9088 7.8048 10.4608 8.176 9.04804H13.312ZM5.792 13.352H1.776C1.90393 11.8538 2.29953 10.3906 2.944 9.03204H6.4C6.05855 10.4491 5.85493 11.8958 5.792 13.352ZM7.52 15.528H13.312V19.848H8.176C7.80486 18.4354 7.58495 16.9872 7.52 15.528ZM13.328 21.928V26.872C11.7861 26.2861 10.5191 25.1446 9.776 23.672C9.44754 23.1172 9.15882 22.5397 8.912 21.944L13.328 21.928ZM15.488 26.872V22.008H19.904C19.6572 22.6037 19.3685 23.1812 19.04 23.736C18.2969 25.2086 17.0299 26.3501 15.488 26.936V26.872ZM15.488 19.768V15.448H21.28C21.215 16.9072 20.9951 18.3554 20.624 19.768H15.488ZM23.024 15.448H27.04C26.9121 16.9463 26.5165 18.4094 25.872 19.768H22.4C22.736 18.376 22.9392 16.9568 23.008 15.528L23.024 15.448ZM23.024 13.288C22.9507 11.8581 22.7418 10.4384 22.4 9.04804H25.856C26.5008 10.408 26.896 11.8704 27.024 13.368L23.024 13.288ZM24.624 6.88804H21.76C21.2418 5.43252 20.4907 4.0708 19.536 2.85604C21.527 3.74977 23.2564 5.13772 24.56 6.88804H24.624ZM9.264 2.85604C8.30931 4.0708 7.5582 5.43252 7.04 6.88804H4.24C5.54355 5.13772 7.27299 3.74977 9.264 2.85604ZM4.224 22.056H7.04C7.5582 23.5116 8.30931 24.8733 9.264 26.088C7.26748 25.1809 5.53751 23.7759 4.24 22.008L4.224 22.056ZM19.52 26.088C20.4747 24.8733 21.2258 23.5116 21.744 22.056H24.56C23.2485 23.7829 21.5197 25.1483 19.536 26.024L19.52 26.088Z" fill="white"/>
</svg>
