<svg width="32" height="33" viewBox="0 0 32 33" fill="none" xmlns="http://www.w3.org/2000/svg">
<g clip-path="url(#clip0_2_1399)">
<path d="M27.2232 7.04229C26.9268 7.0643 26.6359 7.13526 26.3618 7.25241H26.3581C26.095 7.35888 24.8439 7.89595 22.9419 8.71004L16.1262 11.6394C11.2356 13.7406 6.42799 15.8098 6.42799 15.8098L6.48523 15.7872C6.48523 15.7872 6.15377 15.8983 5.80754 16.1405C5.59364 16.2794 5.40957 16.4612 5.26649 16.6747C5.0966 16.9291 4.95996 17.3183 5.01074 17.7206C5.09383 18.4009 5.52593 18.8089 5.83616 19.0341C6.15008 19.2621 6.44922 19.3686 6.44922 19.3686H6.45661L10.965 20.9186C11.1672 21.581 12.3389 25.512 12.6205 26.4174C12.7867 26.9583 12.9483 27.2965 13.1505 27.5547C13.2483 27.6866 13.3628 27.7969 13.5004 27.8854C13.5719 27.9279 13.6482 27.9614 13.7275 27.9853L13.6813 27.974C13.6952 27.9778 13.7063 27.9891 13.7164 27.9929C13.7534 28.0032 13.7783 28.007 13.8254 28.0145C14.5391 28.235 15.1124 27.7827 15.1124 27.7827L15.1448 27.7564L17.8066 25.283L22.2679 28.7759L22.3695 28.8201C23.2992 29.2366 24.241 29.0048 24.7387 28.5959C25.24 28.1841 25.4348 27.6574 25.4348 27.6574L25.4671 27.5726L28.9147 9.54863C29.0126 9.1039 29.0375 8.68743 28.9295 8.28321C28.818 7.87412 28.5609 7.52227 28.2084 7.29669C27.9124 7.11307 27.5692 7.02443 27.2232 7.04229ZM27.13 8.97387C27.1263 9.03323 27.1374 9.02664 27.1115 9.14065V9.15101L23.6963 26.9875C23.6815 27.0129 23.6566 27.0685 23.5882 27.1241C23.5162 27.1825 23.459 27.2193 23.1589 27.0977L17.7023 22.8285L14.4061 25.8945L15.0986 21.3812L24.0139 12.9011C24.3813 12.5525 24.2585 12.479 24.2585 12.479C24.2844 12.0512 23.7036 12.3537 23.7036 12.3537L12.4617 19.4609L12.458 19.4421L7.06967 17.5906V17.5868L7.05582 17.584C7.06527 17.5808 7.07452 17.577 7.08352 17.5727L7.11307 17.5576L7.14169 17.5473C7.14169 17.5473 11.9529 15.4781 16.8436 13.3769C19.2922 12.3245 21.7592 11.2644 23.6566 10.4466C24.7818 9.96322 25.9082 9.48268 27.0358 9.00496C27.1115 8.97481 27.0755 8.97481 27.13 8.97481V8.97387Z" fill="white"/>
<path d="M6.00031 0.0400391C2.68611 0.0400391 3.25568e-08 2.72615 3.25568e-08 6.03973C-8.20546e-05 6.82772 0.155065 7.60802 0.456579 8.33604C0.758094 9.06407 1.20007 9.72557 1.75727 10.2828C2.31446 10.84 2.97597 11.2819 3.70399 11.5835C4.43202 11.885 5.21232 12.0401 6.00031 12.04C9.31326 12.04 12 9.35393 12 6.03973C12 2.72615 9.31326 0.0400391 6.00031 0.0400391ZM6.56028 2.20618C7.14525 2.20618 7.31712 2.54553 7.31712 2.93364C7.31712 3.41799 6.92964 3.86609 6.2678 3.86609C5.71408 3.86609 5.45034 3.58798 5.46659 3.12738C5.46659 2.73927 5.79095 2.20618 6.56028 2.20618ZM5.06161 9.63329C4.66163 9.63329 4.36977 9.39018 4.64913 8.32461L5.10723 6.43408C5.1866 6.1316 5.19973 6.01035 5.10723 6.01035C4.98787 6.01035 4.46852 6.21909 4.16228 6.42533L3.96292 6.09847C4.93474 5.28664 6.05218 4.81042 6.53028 4.81042C6.93026 4.81042 6.99651 5.28289 6.79715 6.01035L6.27217 7.99775C6.17905 8.34898 6.21905 8.47023 6.31217 8.47023C6.43216 8.47023 6.82464 8.32523 7.21087 8.02087L7.43711 8.32461C6.49154 9.26956 5.46097 9.63329 5.06161 9.63329Z" fill="white"/>
</g>
<defs>
<clipPath id="clip0_2_1399">
<rect width="32" height="32" fill="white" transform="translate(0 0.0400391)"/>
</clipPath>
</defs>
</svg>
