<svg width="26" height="27" viewBox="0 0 26 27" fill="none" xmlns="http://www.w3.org/2000/svg">
<g clip-path="url(#clip0_2_1156)">
<path d="M24.9707 8.06857C24.9705 7.61929 24.8728 7.22228 24.6754 6.88156C24.4814 6.5465 24.191 6.26568 23.8014 6.04364C20.5854 4.2187 17.3662 2.39934 14.1512 0.572537C13.2845 0.0800944 12.4441 0.098047 11.5838 0.597559C10.3037 1.3405 3.89484 4.95401 1.98508 6.04262C1.19858 6.49069 0.815871 7.17643 0.815682 8.06774C0.814453 11.7378 0.815682 15.4078 0.814453 19.0779C0.814453 19.5174 0.908122 19.9066 1.09688 20.2423C1.29093 20.5875 1.58545 20.876 1.98404 21.1031C3.89389 22.1917 10.3036 25.8049 11.5834 26.548C12.4441 27.0478 13.2845 27.0657 14.1515 26.573C17.3666 24.7461 20.5859 22.9269 23.8024 21.1019C24.201 20.875 24.4955 20.5862 24.6896 20.2413C24.878 19.9057 24.9719 19.5164 24.9719 19.0769C24.9719 19.0769 24.9719 11.7387 24.9707 8.06857Z" fill="#A179DC"/>
<path d="M12.9309 13.5371L1.09766 20.2423C1.2917 20.5875 1.58623 20.876 1.98482 21.1031C3.89467 22.1917 10.3044 25.8049 11.5842 26.5481C12.4449 27.0479 13.2853 27.0657 14.1523 26.5731C17.3674 24.7462 20.5867 22.9269 23.8032 21.102C24.2018 20.875 24.4963 20.5863 24.6904 20.2414L12.9309 13.5371Z" fill="#280068"/>
<path d="M24.9702 8.06897C24.97 7.61969 24.8724 7.22269 24.6749 6.88196L12.9297 13.5375L24.6891 20.2417C24.8776 19.9061 24.9713 19.5168 24.9715 19.0773C24.9715 19.0773 24.9715 11.7391 24.9702 8.06897Z" fill="#390091"/>
<path d="M19.8966 11.0303V12.2836H21.1701V11.0303H21.8069V12.2836H23.0804V12.9102H21.8069V14.1635H23.0804V14.7902H21.8069V16.0435H21.1701V14.7902H19.8966V16.0435H19.2599V14.7902H17.9863V14.1635H19.2599V12.9102H17.9863V12.2836H19.2599V11.0303H19.8966ZM21.1701 12.9102H19.8966V14.1635H21.1701V12.9102Z" fill="white"/>
<path d="M12.9601 4.73657C16.2819 4.73657 19.182 6.51196 20.7354 9.15089L20.7203 9.12549L16.812 11.3401C16.042 10.057 14.6304 9.19118 13.0111 9.17335L12.9601 9.17307C10.4907 9.17307 8.48877 11.1432 8.48877 13.5733C8.48877 14.3681 8.70406 15.113 9.07847 15.7564C9.84919 17.0806 11.2981 17.9737 12.9601 17.9737C14.6324 17.9737 16.0895 17.0692 16.8563 15.7309L16.8377 15.7631L20.7401 17.9879C19.2037 20.6045 16.3433 22.3744 13.0601 22.4097L12.9601 22.4102C9.62787 22.4102 6.71944 20.6239 5.16996 17.971C4.41352 16.6759 3.98071 15.1744 3.98071 13.5733C3.98071 8.69299 8.00084 4.73657 12.9601 4.73657Z" fill="white"/>
</g>
<defs>
<clipPath id="clip0_2_1156">
<rect width="24.197" height="26.7895" fill="white" transform="translate(0.814453 0.211914)"/>
</clipPath>
</defs>
</svg>
