<svg width="83" height="47" viewBox="0 0 83 47" fill="none" xmlns="http://www.w3.org/2000/svg">
<path d="M40.8947 27.9141C40.6419 27.9141 40.3962 27.9662 40.1787 28.0893L33.298 32.0629C32.8527 32.3193 32.582 32.804 32.582 33.3193V41.2522C32.582 41.7674 32.8527 42.2512 33.298 42.5085L35.0949 43.544C35.968 43.9744 36.29 43.9675 36.6874 43.9675C37.98 43.9675 38.7178 43.1832 38.7178 41.8199V33.9936C38.7178 33.883 38.622 33.8038 38.5134 33.8038H37.6514C37.541 33.8038 37.447 33.885 37.447 33.9936V41.824C37.447 42.4283 36.8175 43.0362 35.7962 42.5253L33.9282 41.4297C33.8622 41.3938 33.8113 41.3282 33.8113 41.2545V33.3215C33.8113 33.2464 33.8616 33.1697 33.9282 33.1317L40.7946 29.1723C40.8589 29.1354 40.9355 29.1354 40.999 29.1723L47.8654 33.1317C47.9307 33.1709 47.9823 33.244 47.9823 33.3215V41.2545C47.9823 41.3302 47.9444 41.4078 47.88 41.4443L40.9992 45.4037C40.9383 45.4388 40.8571 45.4388 40.7948 45.4037L39.0271 44.3519C38.9743 44.321 38.9026 44.3235 38.8518 44.3519C38.3639 44.6285 38.2721 44.6605 37.8147 44.8193C37.702 44.8585 37.5304 44.9196 37.8732 45.1117L40.1814 46.4721C40.4011 46.5992 40.6459 46.6619 40.8973 46.6619C41.1521 46.6619 41.3933 46.601 41.6132 46.4721L48.494 42.5127C48.9393 42.2536 49.2099 41.7716 49.2099 41.2565V33.3236C49.2099 32.8082 48.9393 32.3246 48.494 32.0671L41.6132 28.0936C41.3976 27.9705 41.1503 27.9183 40.8973 27.9183L40.8947 27.9141ZM42.7355 33.5826C40.7761 33.5826 39.6092 34.4166 39.6092 35.8031C39.6092 37.3057 40.7674 37.7207 42.6479 37.9067C44.8977 38.127 45.0731 38.4573 45.0731 38.9002C45.0731 39.6683 44.4607 39.9958 43.0132 39.9958C41.1948 39.9958 40.795 39.5418 40.6612 38.6354C40.6453 38.5383 40.5706 38.4602 40.4713 38.4602H39.5779C39.5241 38.4614 39.4727 38.4833 39.4347 38.5214C39.3966 38.5595 39.3746 38.6108 39.3735 38.6646C39.3735 39.8226 40.0033 41.1919 43.0112 41.1919C45.1884 41.1919 46.4443 40.3391 46.4443 38.8399C46.4443 37.3576 45.4298 36.957 43.318 36.6774C41.186 36.3932 40.9805 36.2571 40.9805 35.757C40.9805 35.3445 41.1531 34.7926 42.7336 34.7926C44.1454 34.7926 44.6672 35.0972 44.8812 36.049C44.8999 36.1384 44.9787 36.2115 45.0711 36.2115H45.9645C46.0193 36.2115 46.0725 36.1778 46.1107 36.1384C46.148 36.0963 46.1744 36.049 46.1691 35.9922C46.0311 34.3528 44.9379 33.5816 42.7361 33.5816L42.7355 33.5826Z" fill="#83CD29"/>
<path d="M55.2792 0.121359C55.2023 0.121498 55.1268 0.141652 55.0601 0.179836C54.9937 0.218672 54.9386 0.27413 54.9002 0.340745C54.8618 0.40736 54.8414 0.482834 54.841 0.559732V11.7357C54.841 11.8453 54.7898 11.9436 54.6948 11.9986C54.6482 12.0258 54.5953 12.0401 54.5414 12.0401C54.4875 12.0401 54.4346 12.0258 54.388 11.9986L52.5618 10.9469C52.4286 10.8698 52.2774 10.8292 52.1236 10.8292C51.9697 10.8292 51.8185 10.8698 51.6853 10.9469L44.3956 15.1541C44.1231 15.3113 43.957 15.6138 43.957 15.9283V24.3431C43.9568 24.4971 43.9972 24.6484 44.0742 24.7818C44.1511 24.9151 44.2619 25.0258 44.3954 25.1027L51.6853 29.3102C51.8184 29.3874 51.9696 29.4281 52.1236 29.4281C52.2775 29.4281 52.4287 29.3874 52.5618 29.3102L59.8517 25.1027C59.9851 25.0258 60.0959 24.9151 60.1729 24.7818C60.2499 24.6484 60.2903 24.4971 60.2901 24.3431V3.36458C60.2901 3.0454 60.1159 2.74591 59.8373 2.59038L55.4984 0.165014C55.4302 0.127045 55.3547 0.120547 55.2792 0.121359ZM8.3841 10.6252C8.24501 10.6309 8.11445 10.6551 7.98958 10.7276L0.699892 14.9348C0.566352 15.0116 0.455481 15.1222 0.378527 15.2556C0.301573 15.389 0.261276 15.5404 0.261722 15.6944L0.276545 26.9875C0.276545 27.1447 0.357762 27.2905 0.495832 27.3672C0.631263 27.4485 0.79918 27.4485 0.934001 27.3672L5.25823 24.8836C5.53234 24.7212 5.71102 24.4377 5.71102 24.1242V18.8501C5.71102 18.5354 5.8765 18.2471 6.14959 18.0908L7.99039 17.0244C8.12341 16.947 8.27469 16.9066 8.42856 16.9074C8.58251 16.9065 8.7339 16.9469 8.86693 17.0244L10.7069 18.0902C10.9796 18.2465 11.1451 18.5352 11.1451 18.8495V24.1234C11.1451 24.4373 11.3278 24.7224 11.5979 24.8828L15.9221 27.3664C16.0581 27.4476 16.2257 27.4476 16.3603 27.3664C16.4943 27.2893 16.5796 27.1437 16.5796 26.9867L16.5942 15.694C16.595 15.5399 16.5549 15.3884 16.4779 15.2549C16.4009 15.1214 16.2898 15.0108 16.156 14.9344L8.86632 10.7274C8.74308 10.6551 8.61191 10.6307 8.47181 10.625H8.3845L8.3841 10.6252ZM73.891 10.7276C73.7371 10.7271 73.5858 10.7675 73.4526 10.8445L66.1627 15.052C65.8906 15.2094 65.7241 15.4971 65.7241 15.8114V24.2261C65.7241 24.5425 65.9024 24.8292 66.1769 24.9855L73.4083 29.1073C73.6754 29.2596 74.0012 29.2712 74.2703 29.1215L78.653 26.6818C78.7921 26.6046 78.8861 26.4604 78.8865 26.3021C78.8869 26.1437 78.8046 26.0012 78.6672 25.9224L71.3332 21.7149C71.196 21.6365 71.0997 21.4779 71.0997 21.3204V18.6891C71.0997 18.532 71.1972 18.3878 71.3332 18.3094L73.6122 16.9945C73.7478 16.9162 73.9143 16.9162 74.0508 16.9945L76.3308 18.3094C76.3975 18.3478 76.4529 18.4031 76.4914 18.4698C76.5299 18.5365 76.5501 18.6121 76.5499 18.6891V20.7636C76.5496 20.8406 76.5698 20.9163 76.6083 20.983C76.6468 21.0497 76.7022 21.105 76.7689 21.1433C76.9056 21.2221 77.0711 21.2225 77.2075 21.1433L81.5754 18.6018C81.8465 18.4443 82.014 18.1557 82.014 17.8424V15.812C82.014 15.6581 81.9735 15.5068 81.8965 15.3735C81.8196 15.2402 81.7089 15.1294 81.5756 15.0524L74.3296 10.8449C74.1964 10.7678 74.0451 10.7275 73.8912 10.728L73.891 10.7276ZM52.0942 17.0098C52.135 17.0096 52.1752 17.0196 52.2112 17.0388L54.7092 18.4851C54.777 18.5243 54.8262 18.5967 54.8262 18.6749V21.5675C54.8262 21.6461 54.7774 21.7183 54.7092 21.7573L52.2112 23.2036C52.1431 23.2422 52.0601 23.2422 51.9919 23.2036L49.4938 21.7573C49.4258 21.7181 49.3769 21.6457 49.3769 21.5675V18.6745C49.3769 18.5961 49.426 18.5243 49.4938 18.4847L51.9919 17.0386C52.026 17.0189 52.056 17.0098 52.0942 17.0098Z" fill="white"/>
<path d="M30.2838 10.6838C30.1299 10.6835 29.9786 10.7239 29.8453 10.8008L22.5554 14.9936C22.2829 15.1508 22.1172 15.4535 22.1172 15.7678V24.1826C22.1168 24.3366 22.1571 24.4879 22.234 24.6213C22.311 24.7546 22.4219 24.8653 22.5554 24.942L29.8453 29.1494C29.9784 29.2267 30.1296 29.2674 30.2835 29.2674C30.4375 29.2674 30.5887 29.2267 30.7218 29.1494L38.0117 24.942C38.1451 24.8651 38.2559 24.7544 38.3329 24.621C38.4099 24.4877 38.4503 24.3364 38.4501 24.1824V15.7676C38.4501 15.4529 38.2844 15.1504 38.0115 14.9934L30.7216 10.8006C30.5884 10.7233 30.437 10.6829 30.283 10.6836L30.2838 10.6838ZM73.8774 18.193C73.8484 18.193 73.8161 18.193 73.7897 18.2072L72.3873 19.0255C72.3611 19.04 72.3393 19.0611 72.3239 19.0867C72.3085 19.1123 72.3001 19.1416 72.2995 19.1715V20.7785C72.2995 20.8391 72.3347 20.8943 72.3873 20.9247L73.7897 21.7282C73.8138 21.7431 73.8415 21.751 73.8699 21.751C73.8982 21.751 73.926 21.7431 73.9501 21.7282L75.3525 20.9247C75.4045 20.8949 75.4402 20.8391 75.4402 20.7785V19.1715C75.4402 19.1109 75.4047 19.0557 75.3525 19.0253L73.9501 18.207C73.9241 18.1916 73.9062 18.1928 73.877 18.1928L73.8774 18.193Z" fill="#83CD29"/>
</svg>
