<svg width="24" height="25" viewBox="0 0 24 25" fill="none" xmlns="http://www.w3.org/2000/svg">
<path d="M23.3369 20.8683L17.84 15.3711C18.774 13.8842 19.316 12.1267 19.316 10.2407C19.316 4.90484 14.9904 0.579834 9.65476 0.579834C4.31911 0.579834 -0.00610352 4.90484 -0.00610352 10.2407C-0.00610352 15.5768 4.3189 19.9014 9.65476 19.9014C11.7073 19.9014 13.6084 19.2597 15.1728 18.1693L20.6043 23.6012C20.9817 23.9782 21.4764 24.166 21.9706 24.166C22.4653 24.166 22.9595 23.9782 23.3375 23.6012C24.0917 22.8462 24.0917 21.6232 23.3369 20.8683ZM9.65476 16.7714C6.04834 16.7714 3.12448 13.8477 3.12448 10.2411C3.12448 6.63448 6.04834 3.71062 9.65476 3.71062C13.2614 3.71062 16.185 6.63448 16.185 10.2411C16.185 13.8477 13.2614 16.7714 9.65476 16.7714Z" fill="#00FFF2"/>
<rect x="6.76929" y="9.3728" width="6.74741" height="1.71388" rx="0.856938" fill="#00FFF2"/>
<rect x="5.00366" y="7.11792" width="7.60245" height="1.71388" rx="0.856938" fill="#00FFF2"/>
<rect x="8.80469" y="11.6278" width="5.29539" height="1.71388" rx="0.856938" fill="#00FFF2"/>
</svg>
