<svg width="33" height="32" viewBox="0 0 33 32" fill="none" xmlns="http://www.w3.org/2000/svg">
<g clip-path="url(#clip0_2_1375)">
<path d="M28.5131 4.65186H3.56414C2.61887 4.65186 1.71232 5.01292 1.04391 5.65562C0.375506 6.29831 0 7.17 0 8.07891L0 15.7898H32.0772V8.07891C32.0772 7.17 31.7017 6.29831 31.0333 5.65562C30.3649 5.01292 29.4584 4.65186 28.5131 4.65186Z" fill="#005BBB"/>
<path d="M32.0772 23.5053C32.0772 24.4142 31.7017 25.2859 31.0333 25.9286C30.3649 26.5713 29.4584 26.9324 28.5131 26.9324H3.56414C2.61887 26.9324 1.71232 26.5713 1.04391 25.9286C0.375506 25.2859 0 24.4142 0 23.5053V15.7944H32.0772V23.5053Z" fill="#FFD500"/>
</g>
<defs>
<clipPath id="clip0_2_1375">
<rect width="32.0772" height="30.8435" fill="white" transform="translate(0 0.372559)"/>
</clipPath>
</defs>
</svg>
