<svg width="30" height="31" viewBox="0 0 30 31" fill="none" xmlns="http://www.w3.org/2000/svg">
<path d="M2.72727 0.0400391C1.23545 0.0400391 0 1.27549 0 2.76731V27.3128C0 28.8046 1.23545 30.04 2.72727 30.04H27.2727C28.7645 30.04 30 28.8046 30 27.3128V2.76731C30 1.27549 28.7645 0.0400391 27.2727 0.0400391H2.72727ZM2.72727 2.76731H27.2727V27.3128H20.1982V18.1082H23.7355L24.2468 14.0173H20.1995V11.3746C20.1995 10.1828 20.4914 9.37277 22.2014 9.37277H24.4173V5.66504C24.0395 5.61731 22.7291 5.53686 21.2223 5.53686C18.0791 5.53686 15.9382 7.42822 15.9382 10.9491V14.0173H12.3586V18.1082H15.9368V27.3128H2.72727V2.76731Z" fill="white"/>
</svg>
