<svg width="32" height="33" viewBox="0 0 32 33" fill="none" xmlns="http://www.w3.org/2000/svg">
<path fill-rule="evenodd" clip-rule="evenodd" d="M9.95398 1.46202C11.518 1.39002 12.0166 1.37402 16.0006 1.37402C19.9846 1.37402 20.4833 1.39136 22.046 1.46202C23.6086 1.53269 24.6753 1.78202 25.6086 2.14336C26.586 2.51269 27.4726 3.09002 28.206 3.83669C28.9526 4.56869 29.5286 5.45402 29.8966 6.43269C30.2593 7.36602 30.5073 8.43269 30.5793 9.99269C30.6513 11.5594 30.6673 12.058 30.6673 16.0407C30.6673 20.0247 30.65 20.5234 30.5793 22.0874C30.5086 23.6474 30.2593 24.714 29.8966 25.6474C29.5286 26.6261 28.9517 27.513 28.206 28.246C27.4726 28.9927 26.586 29.5687 25.6086 29.9367C24.6753 30.2994 23.6086 30.5474 22.0486 30.6194C20.4833 30.6914 19.9846 30.7074 16.0006 30.7074C12.0166 30.7074 11.518 30.69 9.95398 30.6194C8.39398 30.5487 7.32732 30.2994 6.39398 29.9367C5.41521 29.5686 4.52841 28.9917 3.79532 28.246C3.04916 27.5136 2.47174 26.6272 2.10332 25.6487C1.74198 24.7154 1.49398 23.6487 1.42198 22.0887C1.34998 20.522 1.33398 20.0234 1.33398 16.0407C1.33398 12.0567 1.35132 11.558 1.42198 9.99536C1.49265 8.43269 1.74198 7.36602 2.10332 6.43269C2.47228 5.45413 3.05014 4.56777 3.79665 3.83536C4.5287 3.08936 5.41461 2.51195 6.39265 2.14336C7.32598 1.78202 8.39265 1.53402 9.95265 1.46202H9.95398ZM21.9273 4.10202C20.3806 4.03136 19.9166 4.01669 16.0006 4.01669C12.0846 4.01669 11.6206 4.03136 10.074 4.10202C8.64332 4.16736 7.86732 4.40602 7.34998 4.60736C6.66598 4.87402 6.17665 5.19002 5.66332 5.70336C5.17671 6.17676 4.80222 6.75307 4.56732 7.39002C4.36598 7.90736 4.12732 8.68336 4.06198 10.114C3.99132 11.6607 3.97665 12.1247 3.97665 16.0407C3.97665 19.9567 3.99132 20.4207 4.06198 21.9674C4.12732 23.398 4.36598 24.174 4.56732 24.6914C4.80198 25.3274 5.17665 25.9047 5.66332 26.378C6.13665 26.8647 6.71398 27.2394 7.34998 27.474C7.86732 27.6754 8.64332 27.914 10.074 27.9794C11.6206 28.05 12.0833 28.0647 16.0006 28.0647C19.918 28.0647 20.3806 28.05 21.9273 27.9794C23.358 27.914 24.134 27.6754 24.6513 27.474C25.3353 27.2074 25.8246 26.8914 26.338 26.378C26.8246 25.9047 27.1993 25.3274 27.434 24.6914C27.6353 24.174 27.874 23.398 27.9393 21.9674C28.01 20.4207 28.0246 19.9567 28.0246 16.0407C28.0246 12.1247 28.01 11.6607 27.9393 10.114C27.874 8.68336 27.6353 7.90736 27.434 7.39002C27.1673 6.70602 26.8513 6.21669 26.338 5.70336C25.8645 5.21678 25.2883 4.8423 24.6513 4.60736C24.134 4.40602 23.358 4.16736 21.9273 4.10202ZM14.1273 20.562C15.1735 20.9975 16.3385 21.0563 17.4232 20.7283C18.508 20.4003 19.4452 19.7059 20.0748 18.7637C20.7044 17.8214 20.9874 16.6898 20.8754 15.5622C20.7634 14.4345 20.2633 13.3807 19.4606 12.5807C18.949 12.0693 18.3303 11.6778 17.6491 11.4342C16.9679 11.1907 16.2412 11.1012 15.5213 11.1722C14.8014 11.2432 14.1062 11.4729 13.4857 11.8449C12.8653 12.2168 12.335 12.7217 11.9331 13.3232C11.5311 13.9246 11.2676 14.6077 11.1613 15.3233C11.0551 16.0389 11.1089 16.7691 11.3187 17.4614C11.5286 18.1537 11.8893 18.7908 12.3749 19.327C12.8606 19.8631 13.4591 20.2849 14.1273 20.562ZM10.67 10.71C11.37 10.01 12.2011 9.45469 13.1157 9.07584C14.0304 8.69698 15.0107 8.50199 16.0006 8.50199C16.9906 8.50199 17.9709 8.69698 18.8856 9.07584C19.8002 9.45469 20.6313 10.01 21.3313 10.71C22.0313 11.4101 22.5866 12.2411 22.9655 13.1558C23.3444 14.0704 23.5393 15.0507 23.5393 16.0407C23.5393 17.0307 23.3444 18.011 22.9655 18.9256C22.5866 19.8403 22.0313 20.6713 21.3313 21.3714C19.9175 22.7851 18 23.5794 16.0006 23.5794C14.0013 23.5794 12.0838 22.7851 10.67 21.3714C9.2562 19.9576 8.46195 18.0401 8.46195 16.0407C8.46195 14.0413 9.2562 12.1238 10.67 10.71ZM25.2113 9.62469C25.3848 9.46105 25.5237 9.26426 25.6197 9.04599C25.7158 8.82771 25.7671 8.59238 25.7705 8.35393C25.774 8.11548 25.7296 7.87875 25.64 7.65777C25.5503 7.43679 25.4172 7.23604 25.2486 7.06741C25.08 6.89878 24.8792 6.7657 24.6582 6.67605C24.4373 6.58639 24.2005 6.54199 23.9621 6.54547C23.7236 6.54894 23.4883 6.60023 23.27 6.69628C23.0517 6.79234 22.855 6.93122 22.6913 7.10469C22.3731 7.44206 22.1988 7.89018 22.2056 8.35393C22.2123 8.81767 22.3996 9.26053 22.7275 9.58848C23.0555 9.91643 23.4983 10.1037 23.9621 10.1104C24.4258 10.1172 24.8739 9.94294 25.2113 9.62469Z" fill="white"/>
</svg>
