<svg width="32" height="33" viewBox="0 0 32 33" fill="none" xmlns="http://www.w3.org/2000/svg">
<path fill-rule="evenodd" clip-rule="evenodd" d="M12.5713 12H17.5233V14.4667C18.2367 13.048 20.066 11.7733 22.814 11.7733C28.082 11.7733 29.3327 14.5973 29.3327 19.7787V29.3747H23.9993V20.9587C23.9993 18.008 23.286 16.344 21.47 16.344C18.9513 16.344 17.9047 18.1373 17.9047 20.9573V29.3747H12.5713V12ZM3.42602 29.148H8.75935V11.7733H3.42602V29.148ZM9.52335 6.10801C9.52355 6.55504 9.43489 6.99765 9.26253 7.41012C9.09017 7.82259 8.83755 8.19669 8.51935 8.51067C7.87455 9.15151 7.00176 9.51021 6.09268 9.50801C5.1852 9.5074 4.31443 9.14961 3.66868 8.51201C3.35163 8.19696 3.09986 7.82244 2.92781 7.40992C2.75575 6.99739 2.66679 6.55497 2.66602 6.10801C2.66602 5.20534 3.02602 4.34134 3.67002 3.70401C4.3152 3.06555 5.18634 2.70761 6.09402 2.70801C7.00335 2.70801 7.87535 3.06667 8.51935 3.70401C9.16201 4.34134 9.52335 5.20534 9.52335 6.10801Z" fill="white"/>
</svg>
