<svg width="32" height="33" viewBox="0 0 32 33" fill="none" xmlns="http://www.w3.org/2000/svg">
<path d="M27.2917 2.5681C26.9277 2.59422 26.5704 2.67842 26.2338 2.81743H26.2293C25.9061 2.94377 24.3697 3.58106 22.034 4.54706L13.6638 8.0231C7.6577 10.5164 1.75367 12.9716 1.75367 12.9716L1.82397 12.9448C1.82397 12.9448 1.41691 13.0767 0.991712 13.3641C0.729027 13.5289 0.502987 13.7445 0.327268 13.998C0.118637 14.2999 -0.0491752 14.7616 0.0131873 15.239C0.115235 16.0463 0.645883 16.5304 1.02686 16.7976C1.41238 17.0682 1.77975 17.1945 1.77975 17.1945H1.78882L7.32548 19.0337C7.57379 19.8197 9.01266 24.4843 9.35849 25.5587C9.56259 26.2005 9.76101 26.6019 10.0093 26.9082C10.1295 27.0647 10.2701 27.1955 10.4391 27.3006C10.5269 27.351 10.6205 27.3908 10.718 27.4192L10.6613 27.4057C10.6783 27.4102 10.6919 27.4236 10.7044 27.4281C10.7497 27.4404 10.7804 27.4449 10.8382 27.4538C11.7147 27.7154 12.4188 27.1788 12.4188 27.1788L12.4585 27.1475L15.7274 24.2126L21.2062 28.3572L21.331 28.4097C22.4728 28.9039 23.6293 28.6289 24.2405 28.1437C24.8561 27.6551 25.0954 27.0301 25.0954 27.0301L25.1351 26.9294L29.3689 5.54213C29.4891 5.01441 29.5197 4.52023 29.3871 4.04058C29.2502 3.55515 28.9344 3.13765 28.5015 2.86998C28.138 2.65209 27.7165 2.54691 27.2917 2.5681ZM27.1772 4.86012C27.1726 4.93056 27.1862 4.92273 27.1545 5.05801V5.07031L22.9603 26.2351C22.9422 26.2653 22.9116 26.3313 22.8277 26.3972C22.7392 26.4666 22.6689 26.5102 22.3004 26.3659L15.5993 21.3L11.5514 24.9382L12.4018 19.5827L23.3504 9.52018C23.8017 9.1065 23.6508 9.01929 23.6508 9.01929C23.6826 8.51169 22.9694 8.87059 22.9694 8.87059L9.16347 17.3041L9.15893 17.2817L2.5417 15.0847V15.0803L2.5247 15.0769C2.5363 15.0731 2.54765 15.0686 2.55871 15.0635L2.595 15.0456L2.63015 15.0333C2.63015 15.0333 8.53871 12.5781 14.5448 10.0848C17.5518 8.83593 20.5815 7.57811 22.9116 6.60764C24.2935 6.03408 25.6768 5.46387 27.0615 4.89701C27.1545 4.86124 27.1103 4.86124 27.1772 4.86124V4.86012Z" fill="white"/>
</svg>
