<svg width="32" height="33" viewBox="0 0 32 33" fill="none" xmlns="http://www.w3.org/2000/svg">
<path d="M32 15.9366C32 15.8554 32 15.763 31.9964 15.6559C31.9929 15.3568 31.9857 15.0206 31.9786 14.6624C31.95 13.6319 31.9 12.6051 31.8214 11.6375C31.7143 10.3041 31.5571 9.19239 31.3429 8.35767C31.1167 7.48657 30.6735 6.69211 30.0574 6.05369C29.4413 5.41527 28.674 4.95526 27.8321 4.71963C26.8214 4.43893 24.8429 4.26534 22.0571 4.15823C20.7321 4.10652 19.3143 4.07328 17.8964 4.05481C17.4 4.04743 16.9393 4.04373 16.525 4.04004H15.475C15.0607 4.04373 14.6 4.04743 14.1036 4.05481C12.6857 4.07328 11.2679 4.10652 9.94286 4.15823C7.15714 4.26903 5.175 4.44262 4.16786 4.71963C3.32572 4.95468 2.5581 5.4145 1.94194 6.05301C1.32578 6.69152 0.882715 7.48629 0.657143 8.35767C0.439286 9.19239 0.285714 10.3041 0.178571 11.6375C0.1 12.6051 0.0499999 13.6319 0.0214285 14.6624C0.0107142 15.0206 0.0071428 15.3568 0.00357137 15.6559C0.00357137 15.763 0 15.8554 0 15.9366V16.1435C0 16.2247 -5.45489e-08 16.317 0.00357137 16.4242C0.0071428 16.7233 0.0142857 17.0594 0.0214285 17.4177C0.0499999 18.4482 0.1 19.4749 0.178571 20.4426C0.285714 21.776 0.442857 22.8877 0.657143 23.7224C1.11429 25.4916 2.45714 26.8877 4.16786 27.3604C5.175 27.6411 7.15714 27.8147 9.94286 27.9218C11.2679 27.9736 12.6857 28.0068 14.1036 28.0253C14.6 28.0327 15.0607 28.0363 15.475 28.04H16.525C16.9393 28.0363 17.4 28.0327 17.8964 28.0253C19.3143 28.0068 20.7321 27.9736 22.0571 27.9218C24.8429 27.811 26.825 27.6375 27.8321 27.3604C29.5429 26.8877 30.8857 25.4953 31.3429 23.7224C31.5607 22.8877 31.7143 21.776 31.8214 20.4426C31.9 19.4749 31.95 18.4482 31.9786 17.4177C31.9893 17.0594 31.9929 16.7233 31.9964 16.4242C31.9964 16.317 32 16.2247 32 16.1435V15.9366ZM29.4286 16.1287C29.4286 16.2062 29.4286 16.2912 29.425 16.3909C29.4214 16.679 29.4143 16.9966 29.4071 17.3401C29.3821 18.3226 29.3321 19.305 29.2571 20.2173C29.1607 21.4066 29.025 22.3817 28.8571 23.0354C28.6357 23.8886 27.9857 24.5645 27.1643 24.7898C26.4143 24.9966 24.525 25.1628 21.9571 25.2626C20.6571 25.3143 19.2571 25.3475 17.8607 25.366C17.3714 25.3734 16.9179 25.3771 16.5107 25.3771H15.4893L14.1393 25.366C12.7429 25.3475 11.3464 25.3143 10.0429 25.2626C7.475 25.1592 5.58214 24.9966 4.83571 24.7898C4.01429 24.5608 3.36429 23.8886 3.14286 23.0354C2.975 22.3817 2.83929 21.4066 2.74286 20.2173C2.66786 19.305 2.62143 18.3226 2.59286 17.3401C2.58214 16.9966 2.57857 16.6753 2.575 16.3909C2.575 16.2912 2.57143 16.2026 2.57143 16.1287V15.9514C2.57143 15.8738 2.57143 15.7889 2.575 15.6892C2.57857 15.4011 2.58571 15.0834 2.59286 14.7399C2.61786 13.7575 2.66786 12.775 2.74286 11.8628C2.83929 10.6735 2.975 9.6984 3.14286 9.04466C3.36429 8.19147 4.01429 7.51557 4.83571 7.29027C5.58571 7.08344 7.475 6.91723 10.0429 6.81751C11.3429 6.7658 12.7429 6.73256 14.1393 6.71409C14.6286 6.70671 15.0821 6.70301 15.4893 6.70301H16.5107L17.8607 6.71409C19.2571 6.73256 20.6536 6.7658 21.9571 6.81751C24.525 6.92092 26.4179 7.08344 27.1643 7.29027C27.9857 7.51926 28.6357 8.19147 28.8571 9.04466C29.025 9.6984 29.1607 10.6735 29.2571 11.8628C29.3321 12.775 29.3786 13.7575 29.4071 14.7399C29.4179 15.0834 29.4214 15.4048 29.425 15.6892C29.425 15.7889 29.4286 15.8775 29.4286 15.9514V16.1287ZM12.8214 20.9893L21.1071 16.0031L12.8214 11.0908V20.9893Z" fill="white"/>
</svg>
