<svg width="70" height="70" viewBox="0 0 70 70" fill="none" xmlns="http://www.w3.org/2000/svg">
<path d="M44.2534 5.55176H9.04102V64.6524H61.1298V22.466L44.2534 5.55176ZM57.1985 60.7124H12.9722V9.4918H42.6251L57.1985 24.0979V60.7124Z" fill="white"/>
<path d="M32.8625 23.582C31.1744 23.5811 29.5095 23.9855 28.0017 24.7628C26.494 25.5401 25.1853 26.6686 24.1809 28.0577C23.1765 29.4467 22.5043 31.0576 22.2184 32.7609C21.9325 34.4642 22.0409 36.2124 22.5347 37.8651C23.0286 39.5177 23.8942 41.0287 25.062 42.2767C26.2298 43.5247 27.6673 44.4749 29.259 45.0509C30.8506 45.6269 32.552 45.8127 34.2265 45.5933C35.901 45.3739 37.5019 44.7556 38.9006 43.7878L46.5608 51.6298L49.1086 49.0216L41.5081 41.2406C42.7071 39.5986 43.4361 37.6473 43.6135 35.6052C43.7908 33.5631 43.4094 31.5108 42.5121 29.678C41.6148 27.8452 40.2369 26.3042 38.5326 25.2276C36.8284 24.151 34.8651 23.5812 32.8625 23.582ZM25.6718 34.6324C25.6717 33.1764 26.0935 31.753 26.8836 30.5424C27.6737 29.3318 28.7968 28.3882 30.1108 27.831C31.4247 27.2738 32.8706 27.128 34.2655 27.412C35.6604 27.6961 36.9417 28.3972 37.9473 29.4268C38.953 30.4563 39.6379 31.7681 39.9153 33.1961C40.1928 34.6241 40.0504 36.1043 39.5061 37.4495C38.9618 38.7947 38.0401 39.9444 36.8576 40.7533C35.675 41.5622 34.2848 41.9939 32.8625 41.9939C30.9561 41.9917 29.1283 41.2154 27.7803 39.8353C26.4322 38.4552 25.6739 36.5841 25.6718 34.6324Z" fill="white"/>
</svg>
