<svg width="69" height="69" viewBox="0 0 69 69" fill="none" xmlns="http://www.w3.org/2000/svg">
<path d="M61.8141 30.5417L37.5203 5.28369L35.892 3.5898C35.5209 3.20639 35.0192 2.99121 34.4962 2.99121C33.9732 2.99121 33.4715 3.20639 33.1005 3.5898L7.17835 30.5417C6.79817 30.9356 6.4977 31.4048 6.2947 31.9215C6.09169 32.4382 5.99024 32.992 5.99635 33.5501C6.0215 35.8522 7.86365 37.69 10.0767 37.69H12.7488V58.9912H56.2436V37.69H58.9723C60.0474 37.69 61.0596 37.2518 61.8204 36.4605C62.1949 36.0721 62.4917 35.6102 62.6936 35.1017C62.8954 34.5931 62.9982 34.048 62.9961 33.4978C62.9961 32.386 62.5748 31.333 61.8141 30.5417ZM38.017 54.2823H30.9754V40.9405H38.017V54.2823ZM51.7168 32.9811V54.2823H42.0408V39.3708C42.0408 37.9255 40.9154 36.7548 39.526 36.7548H29.4665C28.077 36.7548 26.9516 37.9255 26.9516 39.3708V54.2823H17.2756V32.9811H11.2399L34.5025 8.80228L35.9548 10.313L57.7588 32.9811H51.7168Z" fill="white"/>
</svg>
