<svg width="103" height="100" viewBox="0 0 103 100" fill="none" xmlns="http://www.w3.org/2000/svg">
<circle cx="49.5845" cy="49.5757" r="48.0819" stroke="white" stroke-width="3.00512"/>
<path d="M51.6581 45.6463C50.2758 45.3007 48.8934 44.6095 47.8567 43.5728C46.8199 43.2272 46.4743 42.1904 46.4743 41.4992C46.4743 40.808 46.8199 39.7713 47.5111 39.4257C48.5478 38.7345 49.5846 38.0433 50.6214 38.3889C52.6949 38.3889 54.4228 39.4257 55.4596 40.808L58.5699 36.661C57.5331 35.6242 56.4964 34.933 55.4596 34.2419C54.4228 33.5507 53.0405 33.2051 51.6581 33.2051V28.3669H47.5111V33.2051C45.7831 33.5507 44.0552 34.5874 42.6728 35.9698C41.2905 37.6977 40.2537 39.7713 40.5993 41.8448C40.5993 43.9183 41.2905 45.9919 42.6728 47.3742C44.4008 49.1022 46.8199 50.1389 48.8934 51.1757C49.9302 51.5213 51.3125 52.2125 52.3493 52.9037C53.0405 53.5948 53.3861 54.6316 53.3861 55.6684C53.3861 56.7051 53.0405 57.7419 52.3493 58.7787C51.3125 59.8154 49.9302 60.161 48.8934 60.161C47.5111 60.161 45.7831 59.8154 44.7464 58.7787C43.7096 58.0875 42.6728 57.0507 41.9816 56.014L38.5258 59.8154C39.5625 61.1978 40.5993 62.2346 41.9816 63.2713C43.7096 64.3081 45.7831 65.3448 47.8567 65.3448V69.8375H51.6581V64.6537C53.7317 64.3081 55.4596 63.2713 56.842 61.889C58.5699 60.161 59.6067 57.3963 59.6067 54.9772C59.6067 52.9037 58.9155 50.4845 57.1875 49.1022C55.4596 47.3742 53.7317 46.3375 51.6581 45.6463ZM49.5846 21.4551C34.3787 21.4551 21.9375 33.8963 21.9375 49.1022C21.9375 64.3081 34.3787 76.7493 49.5846 76.7493C64.7905 76.7493 77.2317 64.3081 77.2317 49.1022C77.2317 33.8963 64.7905 21.4551 49.5846 21.4551ZM49.5846 72.9478C36.4522 72.9478 25.739 62.2345 25.739 49.1022C25.739 35.9698 36.4522 25.2566 49.5846 25.2566C62.717 25.2566 73.4302 35.9698 73.4302 49.1022C73.4302 62.2345 62.717 72.9478 49.5846 72.9478Z" fill="white"/>
<circle cx="97.6659" cy="54.1112" r="4.50768" fill="white"/>
</svg>
