<svg width="70" height="70" viewBox="0 0 70 70" fill="none" xmlns="http://www.w3.org/2000/svg">
<path d="M17.1307 19.8865C16.625 20.0049 16.9478 19.9833 16.5281 20.0371C14.7311 20.4245 16.0654 20.7688 17.1307 19.8865ZM48.7344 20.6074C48.8635 20.5214 49.3154 20.0802 47.9058 19.6498C47.9919 20.0909 47.6153 20.0479 47.6153 20.2954C48.659 21.2423 49.0895 22.8887 50.4238 23.233C50.682 22.0494 49.2401 21.4683 48.7344 20.6074ZM16.173 19.5421C16.3344 20.4998 17.0554 18.5307 17.0662 17.8312C16.7864 17.9926 16.5066 18.154 16.2161 18.2832C16.894 18.6275 16.3022 18.9934 15.5704 19.5421C14.0855 21.393 16.9586 18.1002 16.173 19.5421ZM34.5843 7.55493C19.3689 7.55493 7.03735 19.8865 7.03735 35.1019C7.03735 50.3065 19.3689 62.6488 34.5843 62.6488C49.7997 62.6488 62.1312 50.3065 62.1312 35.1019C62.1312 19.8865 49.7997 7.55493 34.5843 7.55493ZM35.316 16.7875L35.4451 16.8305C34.9286 17.4977 38.1353 19.4453 35.8325 19.6067C33.6804 20.2201 36.7364 19.0472 35.0685 19.2516C35.9509 18.0249 34.3691 18.0034 35.316 16.7875ZM22.2527 18.5522C21.478 17.9066 19.0461 19.4345 19.8962 19.0687C22.0052 18.2401 20.0361 19.1548 20.531 20.1447C20.0791 21.0809 20.3804 19.2193 19.2613 20.3277C18.4543 20.5106 16.4743 22.3399 16.7218 21.7803C16.6573 22.6519 14.3653 23.6849 14.0532 25.1376C13.3 27.1498 13.8703 25.0623 13.7304 24.2768C12.6543 22.9102 10.6959 26.5903 11.277 28.043C12.2562 26.3213 12.1809 27.86 11.4707 28.624C12.1916 29.9476 10.8143 31.6693 12.1809 32.6485C12.7835 32.7883 13.9886 30.6255 13.4614 32.8744C13.8272 30.9268 14.4729 33.3371 15.5166 32.7991C15.5812 33.8214 16.2161 33.3479 16.356 34.5854C18.0992 34.4562 19.6917 37.4046 17.6149 37.9642C17.927 37.8781 18.5403 38.4269 19.2505 38.0072C20.4557 38.9649 23.6301 39.0833 23.7162 41.4506C21.5318 42.4943 23.1781 45.3566 21.2843 46.3789C19.1107 46.0561 20.5418 49.0583 19.6272 48.7139C19.993 50.8768 17.432 48.4341 18.422 49.6286C20.2405 50.7477 17.6257 50.5217 18.4435 51.3395C17.5289 51.1458 19.0138 53.0396 19.2613 53.7391C20.5741 55.8697 18.1314 53.2656 17.4105 52.5554C16.7218 51.1781 15.097 48.5417 14.645 46.3789C14.3868 43.2368 11.9549 41.1278 11.3954 38.061C10.8358 36.3501 12.9341 33.6061 11.8043 32.6485C10.8251 31.8845 11.2232 29.2697 10.6421 27.8923C12.0948 21.5974 16.7111 16.2925 22.2527 13.1504C21.6824 13.5701 25.5132 12.0636 25.072 12.4294C24.9536 12.6985 27.3102 11.4072 28.7306 11.2135C28.5799 11.235 25.0397 12.5048 26.0189 12.3326C24.5017 13.0751 25.8683 12.6554 26.6215 12.2788C25.115 13.3871 23.9529 13.0751 22.242 14.0543C20.5203 14.5062 20.8754 16.2925 19.6487 17.1856C20.3696 17.3147 22.1774 15.324 23.2319 14.6246C25.6531 13.4517 22.0052 16.7552 24.308 15.3348C23.5332 16.0557 23.6946 17.2071 23.2212 17.5299C22.9844 17.4654 24.1573 18.0895 22.2527 18.5522ZM26.0189 13.6023C25.7714 13.9359 25.4271 14.6569 25.2226 14.2157C24.9429 14.3556 24.8353 14.9582 24.308 14.4739C24.62 14.248 24.9429 13.7099 24.3295 14.0435C24.6093 13.7422 27.1057 12.8921 26.9658 12.5693C27.407 12.2896 27.364 12.1497 26.8582 12.3218C26.6 12.2358 27.4716 11.504 28.6337 11.4072C28.7951 11.4072 28.8597 11.5148 28.5692 11.4825C26.8152 12.0205 27.5684 11.8699 28.7521 11.4825C28.3001 11.7408 27.9881 11.8161 27.9128 11.9345C29.0964 11.504 27.8482 12.2465 28.1172 12.1927C27.7836 12.3649 28.171 12.4187 27.5254 12.6662C27.6437 12.5693 26.4709 13.3656 27.1703 13.1289C26.4924 13.7745 26.1911 13.7853 26.0189 13.6023ZM27.0519 15.1411C27.0734 14.1081 28.5584 13.4517 28.3755 13.3979C30.2048 12.5371 27.7406 13.4302 29.1825 12.6554C29.7205 12.6016 30.8611 10.8799 32.4429 10.7723C34.1861 10.2451 33.3791 10.8046 34.6704 10.3096L34.4121 10.5248C34.1861 10.5571 34.4659 10.9553 33.6481 11.5578C33.562 12.494 32.0878 12.0636 32.8196 13.0643C32.3461 12.3864 31.6359 13.0428 32.529 13.1074C31.5713 13.8391 29.3439 13.9682 28.2786 15.1841C27.5899 16.1741 26.9551 15.8621 27.0519 15.1411ZM34.7026 18.5845C33.9709 20.3492 33.2607 18.3262 34.552 18.0034C34.8748 18.1756 35.0039 18.2294 34.7026 18.5845ZM31.948 15.055C31.7327 14.2587 31.9049 14.6784 33.1854 14.3018C34.0678 14.9366 32.3999 15.3563 31.948 15.055ZM51.984 46.6371C50.9726 44.8939 53.2107 43.2799 53.964 41.8164C53.8671 43.5273 53.6519 45.2167 51.984 46.6371ZM55.7933 26.7194C54.6957 26.8055 53.7057 27.0638 52.7158 26.4396C50.4345 23.9432 53.1354 29.2589 53.8887 27.0853C56.6003 28.1183 53.8456 32.5731 52.1347 32.1104C51.177 30.0444 49.9933 27.7739 47.9058 26.7625C49.5091 28.5379 50.3054 30.7223 52.0271 32.3256C52.1455 34.5638 54.4159 31.5078 54.276 33.2403C54.4912 36.221 50.908 38.0072 51.5321 40.9986C52.8664 43.721 48.9603 44.216 49.4015 46.6587C47.8305 48.4126 46.1518 50.7799 43.3326 50.4033C43.3326 48.9184 42.5793 47.6594 42.4072 46.1314C40.8792 44.1945 44.0213 42.1177 42.0736 40.0947C39.8247 39.589 42.5363 36.49 40.2228 36.7805C38.8347 35.3924 36.8009 36.7375 34.8103 36.7482C32.3138 36.9849 29.742 33.6815 30.8504 31.3464C29.968 28.9146 33.6481 28.2044 33.745 26.063C35.5097 24.5888 38.0169 24.7718 40.4057 24.4274C40.2336 26.1383 42.0413 26.1491 43.4079 26.7194C44.1719 24.8686 46.55 27.0207 48.1748 25.8478C48.7344 23.1146 46.593 24.761 45.3663 23.8894C43.8814 21.7158 48.5407 22.7703 48.0565 21.6297C46.2487 21.6189 47.2709 19.4023 45.9904 20.6397C47.1418 20.8442 45.786 21.7481 45.8183 20.715C44.0751 20.2093 45.7537 22.695 44.8713 22.9317C43.5263 22.3722 44.1611 23.5666 44.301 23.7495C43.72 25.0085 43.0098 21.8987 41.3634 21.9848C39.7278 20.4891 40.7178 22.6627 42.1382 23.0178C41.8369 23.1039 42.3103 24.3413 41.9337 23.8141C40.7608 22.2 38.5334 21.1239 37.2098 23.1039C37.07 24.9547 33.3038 25.482 33.9064 23.3191C33.024 21.0809 36.6395 23.2545 36.306 21.4683C33.9817 19.9295 36.9408 20.4245 37.7264 18.9826C39.5126 19.0364 37.8017 17.5192 38.641 17.078C38.5549 18.7243 40.0076 18.4123 41.159 18.1002C40.8792 17.1533 41.8476 17.1856 41.2558 16.4001C43.9244 15.3348 39.2221 16.8951 40.169 14.56C39.0176 13.7638 39.6848 16.314 40.169 16.583C40.2013 17.3685 39.5341 18.337 38.6195 16.6906C37.2852 17.5622 37.4251 15.8082 37.339 15.9912C37.1883 15.3133 38.3505 15.281 38.3612 14.0973C38.2644 13.3441 38.2859 12.946 38.8239 12.9029C38.867 13.0105 41.0298 13.0428 41.7938 13.9359C39.7063 13.5163 41.4818 14.2803 42.4179 14.7107C41.4172 13.9252 42.8161 14.7107 41.9983 13.8176C42.3211 13.8821 41.1052 12.5909 42.3534 13.7207C41.6755 12.9137 43.6769 13.1504 42.4933 12.5478C44.2257 13.032 43.2035 12.5909 42.1812 12.1497C39.362 10.471 47.1633 14.4201 43.9782 12.6662C46.012 13.1074 39.631 11.0951 42.5363 11.9775C41.428 11.4933 42.504 11.7623 43.5048 12.0743C41.7077 11.5148 39.0176 10.471 39.1252 10.428C39.7493 10.471 40.3627 10.6109 40.9545 10.7831C42.7946 11.3319 40.4272 10.654 40.933 10.6647C47.2602 12.2896 52.8018 16.5292 56.1699 22.0709C56.9554 22.8994 59.0967 28.3765 57.9776 25.9447C58.4834 27.8816 58.5587 29.9691 58.8277 31.949C58.2682 31.3249 57.6441 29.0222 57.106 27.7417C56.8801 28.2367 56.6218 27.0422 55.7933 26.7194Z" fill="white"/>
</svg>
